<svg id="Camada_1" data-name="Camada 1" xmlns="http://www.w3.org/2000/svg" viewBox="0 0 316.01 91.53"><defs><style>.cls-1{fill:#fff;}</style></defs><title>logo.white</title><path class="cls-1" d="M126.84,15c9.39,0,18.51-.39,27.58.11s13.73,7.07,12.47,16.34c-.8,5.88-6.9,10.49-13.6,10.61-3.91.07-7.81,0-12.06,0V55.71H126.84ZM141.51,32.6c3.64,0,7,0,10.31,0,2,0,2.86-1.18,3-3s-.08-4.3-2.41-4.56a100.77,100.77,0,0,0-10.86-.1Z"/><path class="cls-1" d="M39.94,19.47,32,28.3c-6.86-4.18-13.28-4-17.08.49-2.48,2.91-2.47,8.87,0,11.87,3.64,4.4,9.68,4.61,17.11.52l7.78,8.72c-1.8,1.25-3.23,2.6-4.93,3.35-9.22,4.12-22.42,3.94-30.8-6.2-6.48-7.83-5-20.56,2.51-27.31,9.6-8.6,25.88-7,32.12-.94A5.83,5.83,0,0,0,39.94,19.47Z"/><path class="cls-1" d="M45.74,14.66H58.67V43.8H81V55.87H78.63c-10.14,0-20.29-.06-30.43,0-2,0-2.52-.58-2.5-2.56.1-12,0-24,0-35.95Z"/><path class="cls-1" d="M86.49,14.66H99.26V43.8h22.32V55.68H86.49Z"/><path class="cls-1" d="M198.05,91.18c-1.88.79-2.75.22-3.22-1.45-.75-2.68,0-5.07,1.28-7.35,2.49-4.43,2.07-6-2.23-8.47A27,27,0,0,1,191,71.69c1-1,2-1.94,3.06-2.83a20.15,20.15,0,0,1,1.88-1c2.33-1.49,2.57-3.71.51-5.55a18.36,18.36,0,0,0-3-2c-3.19-1.89-3.25-3.18-.27-5.46a57.14,57.14,0,0,0,5.23-4.16c3.51-3.41,3.18-6.51-.91-9.25-2.79-1.87-5.74-3.51-8.45-5.47-3.09-2.24-3-3.95-.24-6.57s6.12-5.23,8.61-8.3c5.28-6.54,5.45-11.75,1.27-19-.27-.47-.55-.93-.83-1.4l.36-.66a7.76,7.76,0,0,1,2.43,1.19,14.33,14.33,0,0,1,.27,19.26A73.26,73.26,0,0,1,193,28.1c-4.59,4-4.54,5.87.65,9.23,2.21,1.44,4.55,2.68,6.74,4.14,4.2,2.81,4.5,6,.82,9.4a42.31,42.31,0,0,1-4.66,3.34c-3.5,2.45-3.44,4.44.19,6.54a4.63,4.63,0,0,1,1.23.72c1,1.15,2.43,2.25,2.77,3.59.47,1.86-1.62,2.18-2.84,3A45,45,0,0,0,194,71.34a31.47,31.47,0,0,0,3.65,3.39c3.63,2.45,3.93,3.52,1.65,7.27A12.05,12.05,0,0,0,198.05,91.18Z"/><path class="cls-1" d="M249.7,83.1c0-3.75,10.51-3,13.14-3.75s10.88-1.88,11.1-3.76-12.23-1.12-14.48-1.12-22.52,2.63-22.14-3,10.13-3.76,15-4.13,15.39-1.13,17.26-1.13-1.5-3-1.5-3a68,68,0,0,0-17.26-.75c-10.13.75-18.77-.75-18.39-4.5s7.13-3.76,12-3.38,11.63-.38,21,0a23.54,23.54,0,0,0,4.82-.16,20.68,20.68,0,0,0,3.23,8.37,5.68,5.68,0,0,0,5.41,3,5.73,5.73,0,0,1-4.85-3,19.43,19.43,0,0,1-3.38-11.29c.32-9.57.75-19.15.89-28.72a41.9,41.9,0,0,0-1.08-9c-.34-1.63-1.84-2.39-3.57-2.14a3.25,3.25,0,0,0-3,3c-.1.63-.14,1.27-.19,1.91-.56,8-1.15,15.93-1.64,23.91-.09,1.42-.82,2-1.94,1.65a2.38,2.38,0,0,1-1.37-1.83c.59-8.36,1.4-16.7,1.94-25.07a30.28,30.28,0,0,0-.63-7.58c-.4-2.06-2.24-2.53-4.15-2.44s-2.58,1.4-2.81,3c-.2,1.35-.33,2.71-.4,4.06-.46,8.54-.89,17.07-1.36,25.61-.09,1.76-.66,3.21-3,3.58-.08-1.25-.19-2.33-.2-3.41,0-2.79.06-5.58-.06-8.37-.18-4-.48-8-.8-11.94a25.38,25.38,0,0,0-.83-6.13,3.9,3.9,0,0,0-2.94-2.1c-1,0-2.26,1.14-3,2.1-.5.64-.41,1.83-.4,2.78,0,2.79.21,5.58.21,8.38,0,5.75-.09,11.49-.15,17.24a11.77,11.77,0,0,1-.2,3.32c-.23.73-1.11,1.27-1.69,1.89l-.71-.36c-.87-5-1.75-10-2.6-15-.26-1.5-.33-3-.65-4.51-.38-1.76-.9-3.58-3.25-3.45s-3.1,1.91-3.19,3.83a44.58,44.58,0,0,0,.3,6.92c.68,6.27,1.54,12.52,2.19,18.79,1,10,.85,20.32,6.28,29.48,1.42,2.4,3.63,4.94,5.64,5.07a105.44,105.44,0,0,0,10.76.83A3.62,3.62,0,0,1,249.7,83.1Zm-5.63-39.78c6-1.13,25.15.38,25.15.38s.41.06,1.18.13c-.09,2.56-.19,5.12-.27,7.68,0,.4,0,.79,0,1.18-2.19-.07-22.27-.76-27.94-1.11C236.19,51.2,238.07,44.45,244.07,43.32Z"/><path class="cls-1" d="M301.52,64.39a5.2,5.2,0,0,0-3.1-1.08,36.55,36.55,0,0,0-5-.24,44.08,44.08,0,0,1,4.45.25A5.19,5.19,0,0,1,301,64.4c1,1,2.09,2.57,2.07,3.88,0,.88-1.74,2.17-2.93,2.51-3.13.92-6.45,1.22-9.57,2.16a36.13,36.13,0,0,0-8.11,3.39c-8.14,4.84-16.43,9.22-26,10.45l-1.17,0h1.27c9.76-1.14,18.18-5.59,26.45-10.51a36.36,36.36,0,0,1,8.11-3.4c3.13-.93,6.44-1.23,9.58-2.15,1.18-.34,2.91-1.63,2.92-2.52C303.61,67,302.52,65.44,301.52,64.39Z"/><path class="cls-1" d="M253.87,86.8a4.73,4.73,0,0,0,.53,0h.9Z"/><path class="cls-1" d="M307.31,37.3c-3-4.5-8.26-15.38-8.63-21.39s-6.38-9.76-8.26,2.25,3,12.39,3,16.52-3,8.25-10.88,9a63.45,63.45,0,0,1-11.58.14l-.27,7.67c0,.41,0,.8,0,1.19h.21s2.46,1.23-.07,1.72a20.68,20.68,0,0,0,3.23,8.37c1.81,2.83,4.1,3.51,7.17,2.77,3.56-.86,7.12-1.79,10.74-2.34a26.73,26.73,0,0,1,6.44.1,5.2,5.2,0,0,1,3.1,1.08c1,1,2.08,2.57,2.06,3.87,0,.89-1.74,2.18-2.92,2.52-3.14.92-6.45,1.22-9.58,2.15a36.36,36.36,0,0,0-8.11,3.4c-8.14,4.84-16.42,9.22-26,10.45a86.53,86.53,0,0,0,18.43-2.57c9.38-2.62,27,.75,36.78-10.13S310.31,41.81,307.31,37.3Z"/><path class="cls-1" d="M52,63.49a2.68,2.68,0,0,0-.22-.58,1.67,1.67,0,0,0-.37-.46,1.58,1.58,0,0,0-.52-.3,2.34,2.34,0,0,0-1.69.13,2.06,2.06,0,0,0-.69.62,3.25,3.25,0,0,0-.39.89,4,4,0,0,0,0,2,3.12,3.12,0,0,0,.39.89,2,2,0,0,0,1.69.86,1.79,1.79,0,0,0,.75-.15,1.59,1.59,0,0,0,.55-.41,1.84,1.84,0,0,0,.37-.6,3,3,0,0,0,.17-.74h1.24A3.52,3.52,0,0,1,53,66.86a3,3,0,0,1-.64.92,2.81,2.81,0,0,1-1,.61,3.32,3.32,0,0,1-1.2.21,3.4,3.4,0,0,1-1.46-.3,3.27,3.27,0,0,1-1.09-.81A3.7,3.7,0,0,1,47,66.28a4.71,4.71,0,0,1-.23-1.47A4.65,4.65,0,0,1,47,63.35a3.6,3.6,0,0,1,.69-1.21,3.17,3.17,0,0,1,1.09-.82A3.26,3.26,0,0,1,50.23,61a3.88,3.88,0,0,1,1.14.17,2.76,2.76,0,0,1,1,.49,2.44,2.44,0,0,1,.66.77,2.75,2.75,0,0,1,.32,1.05Z"/><path class="cls-1" d="M58.91,68.43H57.77V67.7h0a1.59,1.59,0,0,1-.63.63,1.72,1.72,0,0,1-.86.24,1.94,1.94,0,0,1-1.5-.51,2.29,2.29,0,0,1-.46-1.55V63.18h1.16V66.4a1.44,1.44,0,0,0,.26,1,1,1,0,0,0,.74.29,1.51,1.51,0,0,0,.61-.11,1.14,1.14,0,0,0,.4-.3,1.35,1.35,0,0,0,.22-.45,2.62,2.62,0,0,0,.06-.57V63.18h1.16Z"/><path class="cls-1" d="M60.13,63.18h1.08v1h0a1.34,1.34,0,0,1,.2-.42,2.09,2.09,0,0,1,.36-.37,1.74,1.74,0,0,1,.46-.27,1.54,1.54,0,0,1,.51-.1H63l.16,0v1.12l-.25,0H62.7a1.46,1.46,0,0,0-.55.11,1.37,1.37,0,0,0-.45.35,1.77,1.77,0,0,0-.31.56,2.55,2.55,0,0,0-.11.77v2.5H60.13Z"/><path class="cls-1" d="M64.57,66.74a.84.84,0,0,0,.39.71,1.47,1.47,0,0,0,.8.21l.37,0a1.59,1.59,0,0,0,.39-.09.81.81,0,0,0,.3-.21.51.51,0,0,0,.1-.36.51.51,0,0,0-.16-.37,1.22,1.22,0,0,0-.39-.23,5.25,5.25,0,0,0-.54-.14l-.62-.14a3.74,3.74,0,0,1-.62-.17,2,2,0,0,1-.54-.27,1.24,1.24,0,0,1-.38-.44,1.36,1.36,0,0,1-.15-.67,1.17,1.17,0,0,1,.21-.71,1.59,1.59,0,0,1,.53-.47,2.3,2.3,0,0,1,.71-.25,5,5,0,0,1,.75-.07,3.19,3.19,0,0,1,.77.09,2.11,2.11,0,0,1,.67.28,1.59,1.59,0,0,1,.5.5,1.85,1.85,0,0,1,.25.74H66.7a.7.7,0,0,0-.38-.55,1.52,1.52,0,0,0-.69-.15l-.28,0a1.5,1.5,0,0,0-.32.08.72.72,0,0,0-.25.16.39.39,0,0,0-.1.28.45.45,0,0,0,.15.35,1.15,1.15,0,0,0,.38.22,4.86,4.86,0,0,0,.55.14l.63.13c.2,0,.41.11.61.18a1.88,1.88,0,0,1,.55.27,1.35,1.35,0,0,1,.38.44,1.28,1.28,0,0,1,.15.65,1.43,1.43,0,0,1-.21.79,1.74,1.74,0,0,1-.56.52,2.27,2.27,0,0,1-.75.3,3.88,3.88,0,0,1-.82.09,3.74,3.74,0,0,1-.92-.11,2.24,2.24,0,0,1-.73-.34,1.59,1.59,0,0,1-.49-.57,1.83,1.83,0,0,1-.19-.81Z"/><path class="cls-1" d="M71.37,68.57a2.8,2.8,0,0,1-1.12-.21,2.5,2.5,0,0,1-.84-.57,2.36,2.36,0,0,1-.51-.87,3.33,3.33,0,0,1-.18-1.12,3.21,3.21,0,0,1,.18-1.1,2.28,2.28,0,0,1,1.35-1.45A2.8,2.8,0,0,1,71.37,63a2.83,2.83,0,0,1,1.12.21,2.46,2.46,0,0,1,.83.57,2.5,2.5,0,0,1,.52.88A3.48,3.48,0,0,1,74,65.8a3.6,3.6,0,0,1-.17,1.12,2.38,2.38,0,0,1-.52.87,2.46,2.46,0,0,1-.83.57A2.83,2.83,0,0,1,71.37,68.57Zm0-.91A1.44,1.44,0,0,0,72,67.5a1.57,1.57,0,0,0,.46-.43,2,2,0,0,0,.27-.59,2.58,2.58,0,0,0,0-1.35,1.88,1.88,0,0,0-.27-.59,1.54,1.54,0,0,0-.46-.42,1.33,1.33,0,0,0-.67-.17,1.31,1.31,0,0,0-.67.17,1.47,1.47,0,0,0-.47.42,1.88,1.88,0,0,0-.27.59,2.58,2.58,0,0,0,0,1.35,2,2,0,0,0,.27.59,1.49,1.49,0,0,0,.47.43A1.41,1.41,0,0,0,71.37,67.66Z"/><path class="cls-1" d="M82.74,68.43h-1.1v-.71h0a1.34,1.34,0,0,1-.68.65,2.3,2.3,0,0,1-.94.2,2.45,2.45,0,0,1-1.08-.22,2.15,2.15,0,0,1-.77-.59,2.58,2.58,0,0,1-.45-.89,3.57,3.57,0,0,1-.16-1.1,3.52,3.52,0,0,1,.2-1.23,2.53,2.53,0,0,1,.51-.85A2,2,0,0,1,79,63.2a2.2,2.2,0,0,1,.84-.16,2.81,2.81,0,0,1,.49.05,2.53,2.53,0,0,1,.49.14,2.05,2.05,0,0,1,.43.26,1.65,1.65,0,0,1,.33.37h0V61.19h1.16Zm-4-2.57a2.44,2.44,0,0,0,.09.66,1.61,1.61,0,0,0,.26.58,1.47,1.47,0,0,0,.45.41,1.33,1.33,0,0,0,.65.15,1.41,1.41,0,0,0,.67-.16,1.54,1.54,0,0,0,.45-.43,2,2,0,0,0,.27-.59,3.08,3.08,0,0,0,.08-.68,2.14,2.14,0,0,0-.39-1.36,1.41,1.41,0,0,0-1.74-.32,1.38,1.38,0,0,0-.46.44,1.74,1.74,0,0,0-.25.61A3.17,3.17,0,0,0,78.7,65.86Z"/><path class="cls-1" d="M84.9,66.11a1.9,1.9,0,0,0,.09.58,1.38,1.38,0,0,0,.25.5,1.24,1.24,0,0,0,.44.34,1.39,1.39,0,0,0,.63.13,1.45,1.45,0,0,0,.82-.22,1.31,1.31,0,0,0,.46-.66h1.09a2.19,2.19,0,0,1-.31.77,2.22,2.22,0,0,1-.54.56,2.17,2.17,0,0,1-.7.34,2.81,2.81,0,0,1-.82.12,2.92,2.92,0,0,1-1.1-.2,2.43,2.43,0,0,1-.8-.57,2.34,2.34,0,0,1-.5-.87,3.6,3.6,0,0,1-.17-1.12,3.15,3.15,0,0,1,.18-1.06,2.75,2.75,0,0,1,.51-.88,2.36,2.36,0,0,1,.79-.61A2.57,2.57,0,0,1,86.28,63a2.38,2.38,0,0,1,1.93,1,2.92,2.92,0,0,1,.47,1,3,3,0,0,1,.07,1.15Zm2.7-.77a1.87,1.87,0,0,0-.12-.52,1.28,1.28,0,0,0-.26-.44,1.27,1.27,0,0,0-.41-.31,1.18,1.18,0,0,0-.53-.12,1.38,1.38,0,0,0-.55.11,1.19,1.19,0,0,0-.43.3,1.33,1.33,0,0,0-.28.44,1.42,1.42,0,0,0-.12.54Z"/><path class="cls-1" d="M92.62,61.19h1.27v6.14h3.68v1.1H92.62Z"/><path class="cls-1" d="M99.18,66.11a1.9,1.9,0,0,0,.09.58,1.4,1.4,0,0,0,.26.5,1.2,1.2,0,0,0,.43.34,1.39,1.39,0,0,0,.63.13,1.45,1.45,0,0,0,.82-.22,1.26,1.26,0,0,0,.46-.66H103a2.17,2.17,0,0,1-.86,1.33,2.17,2.17,0,0,1-.7.34,2.76,2.76,0,0,1-.82.12,2.86,2.86,0,0,1-1.09-.2,2.37,2.37,0,0,1-.81-.57,2.48,2.48,0,0,1-.5-.87A3.61,3.61,0,0,1,98,65.81a3.41,3.41,0,0,1,.17-1.06,2.75,2.75,0,0,1,.51-.88,2.4,2.4,0,0,1,.8-.61,2.53,2.53,0,0,1,1-.22,2.38,2.38,0,0,1,1.93,1,2.74,2.74,0,0,1,.47,1,3.15,3.15,0,0,1,.08,1.15Zm2.7-.77a1.58,1.58,0,0,0-.12-.52,1.28,1.28,0,0,0-.26-.44,1.27,1.27,0,0,0-.41-.31,1.12,1.12,0,0,0-.53-.12,1.38,1.38,0,0,0-.55.11,1.19,1.19,0,0,0-.43.3,1.33,1.33,0,0,0-.28.44,1.63,1.63,0,0,0-.12.54Z"/><path class="cls-1" d="M103.39,63.18h.88V61.61h1.15v1.57h1v.87h-1v2.8a2.69,2.69,0,0,0,0,.31.48.48,0,0,0,.07.22.34.34,0,0,0,.17.14.78.78,0,0,0,.3,0h.24a1.07,1.07,0,0,0,.25,0v.89l-.38,0-.37,0a2.48,2.48,0,0,1-.74-.09,1,1,0,0,1-.44-.25.93.93,0,0,1-.21-.42,2.52,2.52,0,0,1-.06-.58V64.05h-.88Z"/><path class="cls-1" d="M107.3,63.18h1.08v1h0a1.34,1.34,0,0,1,.2-.42,2.09,2.09,0,0,1,.36-.37,1.92,1.92,0,0,1,.46-.27,1.55,1.55,0,0,1,.52-.1h.27l.16,0v1.12l-.25,0h-.24a1.47,1.47,0,0,0-.56.11,1.37,1.37,0,0,0-.45.35,1.58,1.58,0,0,0-.3.56,2.26,2.26,0,0,0-.12.77v2.5H107.3Z"/><path class="cls-1" d="M115.26,67.26a.6.6,0,0,0,.06.31c0,.06.11.09.22.09h.12l.16,0v.8l-.16,0-.2,0-.2,0h-.17a1.17,1.17,0,0,1-.59-.14.71.71,0,0,1-.3-.5,2.11,2.11,0,0,1-.85.49,3.42,3.42,0,0,1-1,.15,2.2,2.2,0,0,1-.68-.1,1.52,1.52,0,0,1-.57-.28,1.26,1.26,0,0,1-.4-.48,1.41,1.41,0,0,1-.14-.67,1.52,1.52,0,0,1,.17-.79,1.35,1.35,0,0,1,.47-.48,2.2,2.2,0,0,1,.65-.25,6,6,0,0,1,.72-.11,4.6,4.6,0,0,1,.6-.09,3,3,0,0,0,.5-.09.83.83,0,0,0,.35-.18.57.57,0,0,0,.13-.39.59.59,0,0,0-.11-.36.68.68,0,0,0-.26-.22,1.4,1.4,0,0,0-.35-.1l-.37,0a1.42,1.42,0,0,0-.8.21.79.79,0,0,0-.36.63h-1.15a1.81,1.81,0,0,1,.24-.85,1.61,1.61,0,0,1,.54-.53,2.26,2.26,0,0,1,.75-.29,4.8,4.8,0,0,1,.85-.08,3.84,3.84,0,0,1,.76.08,2.15,2.15,0,0,1,.68.27,1.44,1.44,0,0,1,.48.47,1.3,1.3,0,0,1,.18.7Zm-1.15-1.46a1.35,1.35,0,0,1-.65.21,6.49,6.49,0,0,0-.77.11,1.9,1.9,0,0,0-.36.08,1.05,1.05,0,0,0-.3.15.67.67,0,0,0-.21.26.86.86,0,0,0-.08.38.5.5,0,0,0,.11.32.9.9,0,0,0,.27.21,1.3,1.3,0,0,0,.35.11l.34,0a2.08,2.08,0,0,0,.41,0,1.3,1.3,0,0,0,.42-.18.9.9,0,0,0,.33-.31.74.74,0,0,0,.14-.46Z"/><path class="cls-1" d="M117.38,66.74a.86.86,0,0,0,.39.71,1.47,1.47,0,0,0,.8.21l.37,0a1.59,1.59,0,0,0,.39-.09.81.81,0,0,0,.3-.21.52.52,0,0,0,.11-.36.56.56,0,0,0-.17-.37,1.22,1.22,0,0,0-.39-.23,5.25,5.25,0,0,0-.54-.14l-.62-.14a4,4,0,0,1-.62-.17,2,2,0,0,1-.54-.27,1.24,1.24,0,0,1-.38-.44,1.36,1.36,0,0,1-.14-.67,1.17,1.17,0,0,1,.21-.71,1.47,1.47,0,0,1,.52-.47,2.4,2.4,0,0,1,.71-.25,5,5,0,0,1,.75-.07,3.19,3.19,0,0,1,.77.09,2.11,2.11,0,0,1,.67.28,1.59,1.59,0,0,1,.5.5,1.71,1.71,0,0,1,.25.74h-1.21a.7.7,0,0,0-.38-.55,1.51,1.51,0,0,0-.68-.15l-.29,0a1.67,1.67,0,0,0-.32.08.67.67,0,0,0-.24.16.39.39,0,0,0-.11.28.45.45,0,0,0,.15.35,1.21,1.21,0,0,0,.39.22,5.25,5.25,0,0,0,.54.14l.63.13c.21,0,.41.11.62.18a2,2,0,0,1,.54.27,1.23,1.23,0,0,1,.53,1.09,1.43,1.43,0,0,1-.21.79,1.71,1.71,0,0,1-.55.52,2.42,2.42,0,0,1-.76.3,3.88,3.88,0,0,1-.82.09,3.8,3.8,0,0,1-.92-.11,2.34,2.34,0,0,1-.73-.34,1.59,1.59,0,0,1-.49-.57,1.83,1.83,0,0,1-.18-.81Z"/><path class="cls-1" d="M121.87,63.3h1.41v1.36h-1.41Zm0,3.76h1.41v1.37h-1.41Z"/><path class="cls-1" d="M127.58,61.19h1.27v6.14h3.68v1.1h-5Z"/><path class="cls-1" d="M133.27,61.19h1.15v1.09h-1.15Zm0,2h1.15v5.25h-1.15Z"/><path class="cls-1" d="M135.71,61.19h1.16v2.67h0a1.87,1.87,0,0,1,.29-.34,2,2,0,0,1,.39-.26,1.59,1.59,0,0,1,.43-.16,1.74,1.74,0,0,1,.45-.06,2.42,2.42,0,0,1,1.08.22,2.09,2.09,0,0,1,.77.6,2.78,2.78,0,0,1,.46.89,3.76,3.76,0,0,1,.15,1.08,4,4,0,0,1-.14,1,2.51,2.51,0,0,1-.42.87,2,2,0,0,1-.7.61,2.11,2.11,0,0,1-1,.23,3.27,3.27,0,0,1-.54,0,1.74,1.74,0,0,1-.51-.13,1.79,1.79,0,0,1-.44-.27,1.28,1.28,0,0,1-.33-.42h0v.72h-1.1Zm4,4.62a2.61,2.61,0,0,0-.09-.69,1.88,1.88,0,0,0-.27-.59,1.67,1.67,0,0,0-.46-.42,1.4,1.4,0,0,0-1.73.35,2.23,2.23,0,0,0-.37,1.35,2.55,2.55,0,0,0,.1.74,1.74,1.74,0,0,0,.28.58,1.61,1.61,0,0,0,.47.39,1.35,1.35,0,0,0,.62.14,1.38,1.38,0,0,0,.67-.16,1.42,1.42,0,0,0,.45-.43,1.6,1.6,0,0,0,.25-.58A2.58,2.58,0,0,0,139.75,65.81Z"/><path class="cls-1" d="M141.88,63.18H143v1h0a1.3,1.3,0,0,1,.19-.42,2.09,2.09,0,0,1,.36-.37,1.92,1.92,0,0,1,.46-.27,1.55,1.55,0,0,1,.52-.1h.28l.16,0v1.12l-.25,0h-.25a1.51,1.51,0,0,0-.56.11,1.37,1.37,0,0,0-.45.35,1.76,1.76,0,0,0-.3.56,2.27,2.27,0,0,0-.11.77v2.5h-1.16Z"/><path class="cls-1" d="M149.84,67.26a.6.6,0,0,0,.06.31.24.24,0,0,0,.22.09h.12l.16,0v.8l-.15,0-.2,0-.21,0h-.17a1.2,1.2,0,0,1-.59-.14.74.74,0,0,1-.3-.5,2,2,0,0,1-.85.49,3.37,3.37,0,0,1-1,.15,2.24,2.24,0,0,1-.68-.1,1.69,1.69,0,0,1-.57-.28,1.24,1.24,0,0,1-.39-.48,1.41,1.41,0,0,1-.15-.67,1.52,1.52,0,0,1,.18-.79,1.25,1.25,0,0,1,.46-.48,2.31,2.31,0,0,1,.65-.25,5.84,5.84,0,0,1,.73-.11,4.6,4.6,0,0,1,.6-.09,3.44,3.44,0,0,0,.5-.09.79.79,0,0,0,.34-.18.53.53,0,0,0,.13-.39.59.59,0,0,0-.11-.36.68.68,0,0,0-.26-.22A1.29,1.29,0,0,0,148,64l-.37,0a1.42,1.42,0,0,0-.8.21.75.75,0,0,0-.35.63h-1.16a1.81,1.81,0,0,1,.24-.85,1.74,1.74,0,0,1,.55-.53,2.29,2.29,0,0,1,.74-.29,4.8,4.8,0,0,1,.85-.08,3.94,3.94,0,0,1,.77.08,2.09,2.09,0,0,1,.67.27,1.44,1.44,0,0,1,.48.47,1.3,1.3,0,0,1,.18.7Zm-1.15-1.46A1.32,1.32,0,0,1,148,66a6.8,6.8,0,0,0-.77.11,2.33,2.33,0,0,0-.36.08,1.4,1.4,0,0,0-.3.15.67.67,0,0,0-.21.26.86.86,0,0,0-.08.38.45.45,0,0,0,.12.32.75.75,0,0,0,.26.21,1.3,1.3,0,0,0,.35.11l.34,0a2.18,2.18,0,0,0,.42,0,1.52,1.52,0,0,0,.42-.18,1.08,1.08,0,0,0,.33-.31.81.81,0,0,0,.13-.46Z"/><path class="cls-1" d="M152,66.74a.89.89,0,0,0,.39.71,1.47,1.47,0,0,0,.8.21l.37,0a1.59,1.59,0,0,0,.39-.09.81.81,0,0,0,.3-.21.47.47,0,0,0,.11-.36.55.55,0,0,0-.16-.37,1.49,1.49,0,0,0-.39-.23,4.86,4.86,0,0,0-.55-.14l-.62-.14a4.37,4.37,0,0,1-.62-.17,2,2,0,0,1-.54-.27,1.35,1.35,0,0,1-.38-.44,1.48,1.48,0,0,1-.14-.67,1.17,1.17,0,0,1,.21-.71,1.5,1.5,0,0,1,.53-.47,2.21,2.21,0,0,1,.71-.25,4.86,4.86,0,0,1,.74-.07,3.33,3.33,0,0,1,.78.09,2.21,2.21,0,0,1,.67.28,1.56,1.56,0,0,1,.49.5,1.59,1.59,0,0,1,.25.74h-1.21a.7.7,0,0,0-.38-.55A1.48,1.48,0,0,0,153,64l-.29,0a1.41,1.41,0,0,0-.31.08.72.72,0,0,0-.25.16.39.39,0,0,0-.1.28.48.48,0,0,0,.14.35,1.21,1.21,0,0,0,.39.22,5.25,5.25,0,0,0,.54.14l.63.13a6.32,6.32,0,0,1,.62.18,2,2,0,0,1,.54.27,1.38,1.38,0,0,1,.39.44,1.28,1.28,0,0,1,.14.65,1.43,1.43,0,0,1-.21.79,1.61,1.61,0,0,1-.55.52,2.42,2.42,0,0,1-.76.3,3.84,3.84,0,0,1-1.74,0,2.34,2.34,0,0,1-.73-.34,1.56,1.56,0,0,1-.48-.57,1.7,1.7,0,0,1-.19-.81Z"/><path class="cls-1" d="M158.44,61h1.1l-2.91,7.59h-1.1Z"/><path class="cls-1" d="M27.05,69.33h1.26v6.15H32v1.09H27.05Z"/><path class="cls-1" d="M33.65,69.15H35L33.58,70.6h-.84Zm-.91,7.42V71.33h1.15v5.24Z"/><path class="cls-1" d="M35.15,71.33h1.1v.77l0,0a1.9,1.9,0,0,1,.69-.69,1.85,1.85,0,0,1,.94-.24,2,2,0,0,1,1.36.44,1.73,1.73,0,0,1,.5,1.34v3.6H38.6V73.28a1.4,1.4,0,0,0-.26-.9,1,1,0,0,0-.77-.28,1.1,1.1,0,0,0-.52.11,1.06,1.06,0,0,0-.4.29,1.36,1.36,0,0,0-.25.44,1.61,1.61,0,0,0-.09.54v3.09H35.15Z"/><path class="cls-1" d="M45.82,76.3a2.24,2.24,0,0,1-.66,1.77,2.81,2.81,0,0,1-1.91.58,3.62,3.62,0,0,1-.8-.08,2.2,2.2,0,0,1-.73-.27,1.78,1.78,0,0,1-.55-.51A1.58,1.58,0,0,1,40.9,77h1.16a.87.87,0,0,0,.17.39.73.73,0,0,0,.29.24.94.94,0,0,0,.37.11,3,3,0,0,0,.43,0,1.34,1.34,0,0,0,1-.34,1.4,1.4,0,0,0,.33-1v-.8h0a1.82,1.82,0,0,1-.67.68,1.79,1.79,0,0,1-.91.24A2.35,2.35,0,0,1,42,76.35a2.09,2.09,0,0,1-.73-.59,2.65,2.65,0,0,1-.42-.88,4.08,4.08,0,0,1-.13-1.07,3,3,0,0,1,.16-1,2.65,2.65,0,0,1,.47-.84,2.19,2.19,0,0,1,.74-.57,2.33,2.33,0,0,1,1-.21,2.17,2.17,0,0,1,.92.2,1.46,1.46,0,0,1,.64.66h0v-.72h1.15Zm-2.56-.64a1.26,1.26,0,0,0,1.09-.57,1.93,1.93,0,0,0,.24-.59,3,3,0,0,0,.08-.67,2.82,2.82,0,0,0-.08-.65,2,2,0,0,0-.25-.55,1.27,1.27,0,0,0-.44-.39,1.41,1.41,0,0,0-.64-.14,1.18,1.18,0,0,0-.65.16,1.33,1.33,0,0,0-.43.42,1.62,1.62,0,0,0-.23.59,3,3,0,0,0-.07.66,2.27,2.27,0,0,0,.08.63,1.46,1.46,0,0,0,.25.55,1.34,1.34,0,0,0,.42.4A1.22,1.22,0,0,0,43.26,75.66Z"/><path class="cls-1" d="M51.59,76.57H50.46v-.73h0a1.52,1.52,0,0,1-.64.64,1.69,1.69,0,0,1-.85.24,1.94,1.94,0,0,1-1.5-.52A2.22,2.22,0,0,1,47,74.66V71.33h1.16v3.21a1.42,1.42,0,0,0,.26,1,1,1,0,0,0,.74.28,1.55,1.55,0,0,0,.61-.11,1,1,0,0,0,.39-.3,1,1,0,0,0,.22-.45,2.12,2.12,0,0,0,.07-.57v-3h1.15Z"/><path class="cls-1" d="M57.2,75.41a.56.56,0,0,0,.06.3.24.24,0,0,0,.22.09h.12a.47.47,0,0,0,.16,0v.8l-.15,0-.2,0a.76.76,0,0,1-.21,0l-.17,0a1.1,1.1,0,0,1-.59-.15.72.72,0,0,1-.3-.49,2,2,0,0,1-.85.48,3.39,3.39,0,0,1-1,.16,2.6,2.6,0,0,1-.68-.1,1.92,1.92,0,0,1-.57-.29,1.31,1.31,0,0,1-.4-.47,1.59,1.59,0,0,1-.14-.68,1.54,1.54,0,0,1,.18-.79,1.22,1.22,0,0,1,.46-.47,2,2,0,0,1,.65-.25c.24,0,.48-.09.73-.12l.6-.09a2.49,2.49,0,0,0,.5-.08.8.8,0,0,0,.34-.19.49.49,0,0,0,.13-.38.62.62,0,0,0-.11-.37.75.75,0,0,0-.26-.21,1.3,1.3,0,0,0-.35-.11l-.37,0a1.51,1.51,0,0,0-.8.2.78.78,0,0,0-.35.63H52.72a1.73,1.73,0,0,1,.24-.84,1.89,1.89,0,0,1,.55-.54,2.27,2.27,0,0,1,.74-.28,4,4,0,0,1,.85-.08,3.3,3.3,0,0,1,.77.08,2.08,2.08,0,0,1,.67.26A1.44,1.44,0,0,1,57,72a1.34,1.34,0,0,1,.18.71ZM56.05,74a1.42,1.42,0,0,1-.65.2c-.26,0-.52.06-.77.11a2.37,2.37,0,0,0-.36.09.85.85,0,0,0-.3.15.64.64,0,0,0-.21.25.89.89,0,0,0-.08.38.48.48,0,0,0,.12.33.89.89,0,0,0,.26.21,1.29,1.29,0,0,0,.35.1l.34,0a1.6,1.6,0,0,0,.42,0,1.48,1.48,0,0,0,.42-.17,1.22,1.22,0,0,0,.33-.31.86.86,0,0,0,.13-.46Z"/><path class="cls-1" d="M61.3,71.33h1.1V72h0a1.45,1.45,0,0,1,.68-.66,2.26,2.26,0,0,1,.94-.19,2.57,2.57,0,0,1,1.08.21,2.19,2.19,0,0,1,.77.6,2.89,2.89,0,0,1,.46.89,3.91,3.91,0,0,1,0,2.11,2.65,2.65,0,0,1-.42.88,2.18,2.18,0,0,1-.7.61,2.11,2.11,0,0,1-1,.23,2.94,2.94,0,0,1-.51,0,2.13,2.13,0,0,1-.49-.15,1.9,1.9,0,0,1-.43-.26,1.31,1.31,0,0,1-.33-.37h0v2.62H61.3Zm4,2.63a2.61,2.61,0,0,0-.09-.69,1.83,1.83,0,0,0-.27-.6,1.5,1.5,0,0,0-.46-.41,1.18,1.18,0,0,0-.63-.16,1.27,1.27,0,0,0-1.1.51A2.19,2.19,0,0,0,62.42,74a2.48,2.48,0,0,0,.1.73,1.65,1.65,0,0,0,.28.58,1.34,1.34,0,0,0,1.09.53,1.28,1.28,0,0,0,.67-.16,1.51,1.51,0,0,0,.45-.42,1.65,1.65,0,0,0,.25-.59A2.51,2.51,0,0,0,65.34,74Z"/><path class="cls-1" d="M69.88,76.72a2.88,2.88,0,0,1-1.13-.21,2.44,2.44,0,0,1-.83-.58,2.36,2.36,0,0,1-.51-.87,3.51,3.51,0,0,1,0-2.22,2.36,2.36,0,0,1,.51-.87,2.44,2.44,0,0,1,.83-.58,3.26,3.26,0,0,1,2.25,0,2.44,2.44,0,0,1,.83.58,2.52,2.52,0,0,1,.52.87,3.71,3.71,0,0,1,0,2.22,2.52,2.52,0,0,1-.52.87,2.44,2.44,0,0,1-.83.58A2.87,2.87,0,0,1,69.88,76.72Zm0-.92a1.33,1.33,0,0,0,.67-.16,1.45,1.45,0,0,0,.46-.43,1.88,1.88,0,0,0,.27-.59,2.54,2.54,0,0,0,0-1.34,1.83,1.83,0,0,0-.27-.6,1.54,1.54,0,0,0-.46-.42,1.33,1.33,0,0,0-.67-.16,1.3,1.3,0,0,0-.67.16,1.47,1.47,0,0,0-.47.42,1.83,1.83,0,0,0-.27.6,2.54,2.54,0,0,0,0,1.34,1.88,1.88,0,0,0,.27.59,1.39,1.39,0,0,0,.47.43A1.3,1.3,0,0,0,69.88,75.8Z"/><path class="cls-1" d="M73.49,71.33h1.08v1h0a1.2,1.2,0,0,1,.2-.41,1.8,1.8,0,0,1,.36-.37,1.74,1.74,0,0,1,.46-.27,1.32,1.32,0,0,1,.51-.1h.28l.16,0v1.11l-.25,0-.25,0a1.3,1.3,0,0,0-.55.12,1.34,1.34,0,0,0-.45.34,1.63,1.63,0,0,0-.3.57,2.26,2.26,0,0,0-.12.77v2.49H73.49Z"/><path class="cls-1" d="M76.53,71.33h.87V69.76h1.16v1.57h1v.86h-1V75a2.82,2.82,0,0,0,0,.31.52.52,0,0,0,.08.23.37.37,0,0,0,.16.14.9.9,0,0,0,.31,0h.24l.24,0v.89l-.37,0a2.36,2.36,0,0,1-.38,0,2.84,2.84,0,0,1-.73-.08,1,1,0,0,1-.44-.26.93.93,0,0,1-.21-.42,3.18,3.18,0,0,1-.07-.58V72.19h-.87Z"/><path class="cls-1" d="M85,76.57H83.9v-.73h0a1.55,1.55,0,0,1-.63.64,1.72,1.72,0,0,1-.86.24,1.91,1.91,0,0,1-1.49-.52,2.22,2.22,0,0,1-.46-1.54V71.33h1.15v3.21a1.42,1.42,0,0,0,.27,1,.94.94,0,0,0,.74.28,1.58,1.58,0,0,0,.61-.11,1,1,0,0,0,.39-.3,1.18,1.18,0,0,0,.22-.45,2.62,2.62,0,0,0,.06-.57v-3H85Z"/><path class="cls-1" d="M91.11,76.3a2.21,2.21,0,0,1-.67,1.77,2.8,2.8,0,0,1-1.91.58,3.53,3.53,0,0,1-.79-.08A2.26,2.26,0,0,1,87,78.3a1.78,1.78,0,0,1-.55-.51,1.48,1.48,0,0,1-.26-.77h1.15a1,1,0,0,0,.18.39.67.67,0,0,0,.29.24.89.89,0,0,0,.37.11,2.77,2.77,0,0,0,.42,0,1.36,1.36,0,0,0,1-.34,1.45,1.45,0,0,0,.32-1v-.8h0a1.73,1.73,0,0,1-.66.68,1.82,1.82,0,0,1-.91.24,2.32,2.32,0,0,1-1.07-.22,1.93,1.93,0,0,1-.73-.59,2.47,2.47,0,0,1-.42-.88A4.08,4.08,0,0,1,86,73.81a3,3,0,0,1,.16-1,2.63,2.63,0,0,1,.46-.84,2.33,2.33,0,0,1,.75-.57,2.29,2.29,0,0,1,1-.21,2.13,2.13,0,0,1,.91.2,1.41,1.41,0,0,1,.64.66h0v-.72h1.16Zm-2.57-.64a1.24,1.24,0,0,0,.66-.16,1.3,1.3,0,0,0,.43-.41,2.23,2.23,0,0,0,.25-.59,3,3,0,0,0,.07-.67,2.82,2.82,0,0,0-.08-.65,1.72,1.72,0,0,0-.25-.55,1.24,1.24,0,0,0-.43-.39,1.45,1.45,0,0,0-.65-.14,1.21,1.21,0,0,0-.65.16,1.3,1.3,0,0,0-.42.42,1.83,1.83,0,0,0-.24.59,3.7,3.7,0,0,0-.07.66,2.72,2.72,0,0,0,.08.63,1.85,1.85,0,0,0,.25.55,1.27,1.27,0,0,0,.43.4A1.21,1.21,0,0,0,88.54,75.66Z"/><path class="cls-1" d="M96.88,76.57H95.74v-.73h0a1.55,1.55,0,0,1-.63.64,1.72,1.72,0,0,1-.86.24,1.91,1.91,0,0,1-1.49-.52,2.22,2.22,0,0,1-.47-1.54V71.33h1.16v3.21a1.48,1.48,0,0,0,.26,1,1,1,0,0,0,.75.28,1.5,1.5,0,0,0,.6-.11.94.94,0,0,0,.4-.3,1.18,1.18,0,0,0,.22-.45,2.62,2.62,0,0,0,.06-.57v-3h1.16Z"/><path class="cls-1" d="M99,74.25a2,2,0,0,0,.09.59,1.25,1.25,0,0,0,.69.84,1.54,1.54,0,0,0,.63.12,1.37,1.37,0,0,0,.82-.22,1.28,1.28,0,0,0,.46-.65h1.09a2.14,2.14,0,0,1-.31.76,2.22,2.22,0,0,1-.54.56,2.19,2.19,0,0,1-.7.35,2.81,2.81,0,0,1-.82.12,2.73,2.73,0,0,1-1.1-.21,2.17,2.17,0,0,1-.8-.57,2.34,2.34,0,0,1-.5-.87A3.59,3.59,0,0,1,97.84,74,3.06,3.06,0,0,1,98,72.9a2.79,2.79,0,0,1,.51-.89,2.35,2.35,0,0,1,1.85-.82,2.27,2.27,0,0,1,1.11.26,2.47,2.47,0,0,1,.82.68,2.88,2.88,0,0,1,.47,1,3.11,3.11,0,0,1,.08,1.14Zm2.7-.76a1.94,1.94,0,0,0-.12-.53,1.39,1.39,0,0,0-.26-.44,1.24,1.24,0,0,0-.41-.3,1.15,1.15,0,0,0-.53-.12,1.23,1.23,0,0,0-.55.11,1.17,1.17,0,0,0-.43.29,1.44,1.44,0,0,0-.28.44,1.64,1.64,0,0,0-.12.55Z"/><path class="cls-1" d="M104.61,74.89a.85.85,0,0,0,.39.71,1.56,1.56,0,0,0,.8.2l.37,0a1.59,1.59,0,0,0,.39-.1.81.81,0,0,0,.3-.21.51.51,0,0,0,.1-.36.47.47,0,0,0-.16-.36,1.06,1.06,0,0,0-.39-.23,3.49,3.49,0,0,0-.54-.15l-.62-.13c-.22,0-.43-.11-.62-.17a2,2,0,0,1-.54-.28,1.16,1.16,0,0,1-.38-.44,1.34,1.34,0,0,1-.14-.66,1.2,1.2,0,0,1,.2-.72,1.56,1.56,0,0,1,.53-.46,2.07,2.07,0,0,1,.71-.25,4,4,0,0,1,.75-.07,3.79,3.79,0,0,1,.77.08,2.11,2.11,0,0,1,.67.28,1.7,1.7,0,0,1,.5.5,1.9,1.9,0,0,1,.25.75h-1.21a.72.72,0,0,0-.38-.56,1.65,1.65,0,0,0-.68-.14l-.29,0a1.07,1.07,0,0,0-.32.08.6.6,0,0,0-.25.16.41.41,0,0,0-.1.28.43.43,0,0,0,.15.34,1.27,1.27,0,0,0,.38.22,3.33,3.33,0,0,0,.55.15l.63.13c.21,0,.41.1.62.17a2,2,0,0,1,.54.28,1.21,1.21,0,0,1,.38.43,1.3,1.3,0,0,1,.15.65,1.41,1.41,0,0,1-.21.79,1.67,1.67,0,0,1-.56.53,2.26,2.26,0,0,1-.75.29,3.91,3.91,0,0,1-.82.1,3.36,3.36,0,0,1-.92-.12,1.89,1.89,0,0,1-.73-.34,1.64,1.64,0,0,1-.49-.56,1.86,1.86,0,0,1-.19-.81Z"/><path class="cls-1" d="M113.4,75.41a.58.58,0,0,0,0,.3.24.24,0,0,0,.22.09h.12a.47.47,0,0,0,.16,0v.8l-.15,0-.2,0-.2,0-.18,0a1.1,1.1,0,0,1-.59-.15.72.72,0,0,1-.3-.49,2,2,0,0,1-.85.48,3.34,3.34,0,0,1-1,.16,2.6,2.6,0,0,1-.68-.1,1.92,1.92,0,0,1-.57-.29,1.28,1.28,0,0,1-.39-.47,1.45,1.45,0,0,1-.15-.68,1.54,1.54,0,0,1,.18-.79,1.22,1.22,0,0,1,.46-.47,2,2,0,0,1,.65-.25c.24,0,.48-.09.73-.12l.6-.09a2.38,2.38,0,0,0,.5-.08.8.8,0,0,0,.34-.19.49.49,0,0,0,.13-.38.62.62,0,0,0-.11-.37.75.75,0,0,0-.26-.21,1.3,1.3,0,0,0-.35-.11l-.37,0a1.51,1.51,0,0,0-.8.2.78.78,0,0,0-.35.63h-1.16a1.73,1.73,0,0,1,.24-.84,1.89,1.89,0,0,1,.55-.54,2.27,2.27,0,0,1,.74-.28,4,4,0,0,1,.86-.08,3.27,3.27,0,0,1,.76.08,2.08,2.08,0,0,1,.67.26,1.44,1.44,0,0,1,.48.47,1.34,1.34,0,0,1,.19.71ZM112.24,74a1.42,1.42,0,0,1-.65.2c-.26,0-.51.06-.77.11l-.36.09a.85.85,0,0,0-.3.15.64.64,0,0,0-.21.25.89.89,0,0,0-.07.38.47.47,0,0,0,.11.33.82.82,0,0,0,.27.21,1.22,1.22,0,0,0,.34.1l.34,0a1.6,1.6,0,0,0,.42,0,1.28,1.28,0,0,0,.42-.17,1.22,1.22,0,0,0,.33-.31.86.86,0,0,0,.13-.46Z"/><path class="cls-1" d="M122.4,76.57h-1.09v-.71h0a1.36,1.36,0,0,1-.68.66,2.34,2.34,0,0,1-1,.2,2.6,2.6,0,0,1-1.08-.22,2.25,2.25,0,0,1-.76-.6,2.54,2.54,0,0,1-.46-.88,4,4,0,0,1-.15-1.1,3.46,3.46,0,0,1,.19-1.23,2.44,2.44,0,0,1,.51-.85,2,2,0,0,1,.74-.5,2.39,2.39,0,0,1,.83-.15,2.89,2.89,0,0,1,.5,0,2.13,2.13,0,0,1,.49.15,1.9,1.9,0,0,1,.43.26,1.46,1.46,0,0,1,.33.37h0V69.33h1.15Zm-4-2.56a2.48,2.48,0,0,0,.08.66,1.87,1.87,0,0,0,.27.57,1.27,1.27,0,0,0,.45.41,1.33,1.33,0,0,0,.65.15,1.27,1.27,0,0,0,.66-.16,1.35,1.35,0,0,0,.46-.43,1.86,1.86,0,0,0,.26-.59,2.52,2.52,0,0,0,.09-.67,2.1,2.1,0,0,0-.39-1.36,1.28,1.28,0,0,0-1.06-.49,1.36,1.36,0,0,0-.69.17,1.32,1.32,0,0,0-.45.43,1.85,1.85,0,0,0-.26.61A3.26,3.26,0,0,0,118.37,74Z"/><path class="cls-1" d="M128.05,75.41a.56.56,0,0,0,.06.3.24.24,0,0,0,.22.09h.12a.47.47,0,0,0,.16,0v.8l-.16,0-.19,0a.76.76,0,0,1-.21,0l-.17,0a1.1,1.1,0,0,1-.59-.15.72.72,0,0,1-.3-.49,2,2,0,0,1-.85.48,3.39,3.39,0,0,1-1,.16,2.6,2.6,0,0,1-.68-.1,1.92,1.92,0,0,1-.57-.29,1.31,1.31,0,0,1-.4-.47,1.59,1.59,0,0,1-.14-.68,1.65,1.65,0,0,1,.17-.79,1.32,1.32,0,0,1,.47-.47,2,2,0,0,1,.65-.25c.24,0,.48-.09.73-.12l.59-.09a2.48,2.48,0,0,0,.51-.08.8.8,0,0,0,.34-.19.49.49,0,0,0,.13-.38.62.62,0,0,0-.11-.37.75.75,0,0,0-.26-.21,1.3,1.3,0,0,0-.35-.11l-.37,0a1.51,1.51,0,0,0-.8.2.78.78,0,0,0-.35.63h-1.16a1.73,1.73,0,0,1,.24-.84,1.89,1.89,0,0,1,.55-.54,2.19,2.19,0,0,1,.74-.28,4,4,0,0,1,.85-.08,3.22,3.22,0,0,1,.76.08,2,2,0,0,1,.68.26,1.44,1.44,0,0,1,.48.47,1.34,1.34,0,0,1,.18.71ZM126.9,74a1.42,1.42,0,0,1-.65.2c-.26,0-.52.06-.77.11a2.37,2.37,0,0,0-.36.09.85.85,0,0,0-.3.15.64.64,0,0,0-.21.25.89.89,0,0,0-.08.38.48.48,0,0,0,.12.33.89.89,0,0,0,.26.21,1.29,1.29,0,0,0,.35.1l.34,0a1.6,1.6,0,0,0,.42,0,1.48,1.48,0,0,0,.42-.17,1.22,1.22,0,0,0,.33-.31.86.86,0,0,0,.13-.46Z"/><path class="cls-1" d="M132.2,69.33h1.27v4.22a6.23,6.23,0,0,0,0,.74,1.69,1.69,0,0,0,.2.68,1.34,1.34,0,0,0,.51.49,2.5,2.5,0,0,0,1.91,0,1.34,1.34,0,0,0,.51-.49,1.69,1.69,0,0,0,.2-.68,6.23,6.23,0,0,0,0-.74V69.33h1.27V74a3.19,3.19,0,0,1-.21,1.21,2.4,2.4,0,0,1-.61.87,2.46,2.46,0,0,1-.94.52,4.19,4.19,0,0,1-2.43,0,2.46,2.46,0,0,1-.94-.52,2.26,2.26,0,0,1-.6-.87A3,3,0,0,1,132.2,74Z"/><path class="cls-1" d="M139.61,69.33h5v1.1h-3.73v1.89h3.27v1h-3.27v3.21h-1.27Z"/><path class="cls-1" d="M145.62,69.33h3.46a2.67,2.67,0,0,1,1.8.52,1.79,1.79,0,0,1,.6,1.44,2.09,2.09,0,0,1-.15.85,1.94,1.94,0,0,1-.36.55,1.31,1.31,0,0,1-.4.3l-.29.12v0a1.28,1.28,0,0,1,.35.11,1,1,0,0,1,.35.25,1.42,1.42,0,0,1,.27.47,2,2,0,0,1,.11.71,6.92,6.92,0,0,0,.09,1.16,1.61,1.61,0,0,0,.3.74h-1.36a1.13,1.13,0,0,1-.16-.51,5.36,5.36,0,0,1,0-.55,5.34,5.34,0,0,0-.06-.86,1.63,1.63,0,0,0-.22-.6,1,1,0,0,0-.45-.35,2,2,0,0,0-.71-.11h-1.87v3h-1.27Zm1.27,3.3H149a1.35,1.35,0,0,0,.93-.29,1.13,1.13,0,0,0,.31-.87,1.28,1.28,0,0,0-.1-.56.79.79,0,0,0-.28-.34.93.93,0,0,0-.41-.16,2.42,2.42,0,0,0-.47,0h-2.06Z"/><path class="cls-1" d="M152.72,69.33h1.33l3.31,5.34h0V69.33h1.21v7.24h-1.34L154,71.25h0v5.32h-1.2Z"/></svg>