<svg id="Camada_1" data-name="Camada 1" xmlns="http://www.w3.org/2000/svg" viewBox="0 0 316.01 91.53"><defs><style>.cls-1{fill:#1a3079;}.cls-2,.cls-6{fill:#042f89;}.cls-3{fill:#fff;}.cls-4{fill:#147548;}.cls-5{fill:#fff91c;}.cls-6{font-size:10.14px;font-family:HelveticaNeue-Medium, Helvetica Neue;font-weight:500;}</style></defs><title>logo</title><path class="cls-1" d="M256.52,86.84c9.76-1.14,18.18-5.59,26.45-10.51a36.36,36.36,0,0,1,8.11-3.4c3.13-.93,6.44-1.23,9.58-2.15,1.18-.34,2.91-1.63,2.92-2.52,0-1.3-1.06-2.82-2.06-3.87a5.2,5.2,0,0,0-3.1-1.08,26.73,26.73,0,0,0-6.44-.1c-3.62.55-7.18,1.48-10.74,2.34-3.07.74-5.36.06-7.17-2.77a19.43,19.43,0,0,1-3.38-11.29c.32-9.57.75-19.15.89-28.72a41.9,41.9,0,0,0-1.08-9c-.34-1.63-1.84-2.39-3.57-2.14a3.25,3.25,0,0,0-3,3c-.1.63-.14,1.27-.19,1.91-.56,8-1.15,15.93-1.64,23.91-.09,1.42-.82,2-1.94,1.65a2.38,2.38,0,0,1-1.37-1.83c.59-8.36,1.4-16.7,1.94-25.07a30.28,30.28,0,0,0-.63-7.58c-.4-2.06-2.24-2.53-4.15-2.44s-2.58,1.4-2.81,3c-.2,1.35-.33,2.71-.4,4.06-.46,8.54-.89,17.07-1.36,25.61-.09,1.76-.66,3.21-3,3.58-.08-1.25-.19-2.33-.2-3.41,0-2.79.06-5.58-.06-8.37-.18-4-.48-8-.8-11.94a25.38,25.38,0,0,0-.83-6.13,3.9,3.9,0,0,0-2.94-2.1c-1,0-2.26,1.14-3,2.1-.5.64-.41,1.83-.4,2.78,0,2.79.21,5.58.21,8.38,0,5.75-.09,11.49-.15,17.24a11.77,11.77,0,0,1-.2,3.32c-.23.73-1.11,1.27-1.69,1.89l-.71-.36c-.87-5-1.75-10-2.6-15-.26-1.5-.33-3-.65-4.51-.38-1.76-.9-3.58-3.25-3.45s-3.1,1.91-3.19,3.83a44.58,44.58,0,0,0,.3,6.92c.68,6.27,1.54,12.52,2.19,18.79,1,10,.85,20.32,6.28,29.48,1.42,2.4,3.63,4.94,5.64,5.07A120.5,120.5,0,0,0,256.52,86.84Z"/><path class="cls-2" d="M126.84,15c9.39,0,18.51-.39,27.58.11s13.73,7.07,12.47,16.34c-.8,5.88-6.9,10.49-13.6,10.61-3.91.07-7.81,0-12.06,0V55.71H126.84ZM141.51,32.6c3.64,0,7,0,10.31,0,2,0,2.86-1.18,3-3s-.08-4.3-2.41-4.56a100.77,100.77,0,0,0-10.86-.1Z"/><path class="cls-2" d="M39.94,19.47,32,28.3c-6.86-4.18-13.28-4-17.08.49-2.48,2.91-2.47,8.87,0,11.87,3.64,4.4,9.68,4.61,17.11.52l7.78,8.72c-1.8,1.25-3.23,2.6-4.93,3.35-9.22,4.12-22.42,3.94-30.8-6.2-6.48-7.83-5-20.56,2.51-27.31,9.6-8.6,25.88-7,32.12-.94A5.83,5.83,0,0,0,39.94,19.47Z"/><path class="cls-2" d="M45.74,14.66H58.67V43.8H81V55.87H78.63c-10.14,0-20.29-.06-30.43,0-2,0-2.52-.58-2.5-2.56.1-12,0-24,0-35.95Z"/><path class="cls-2" d="M86.49,14.66H99.26V43.8h22.32V55.68H86.49Z"/><path class="cls-2" d="M198.05,91.18c-1.88.79-2.75.22-3.22-1.45-.75-2.68,0-5.07,1.28-7.35,2.49-4.43,2.07-6-2.23-8.47A27,27,0,0,1,191,71.69c1-1,2-1.94,3.06-2.83a20.15,20.15,0,0,1,1.88-1c2.33-1.49,2.57-3.71.51-5.55a18.36,18.36,0,0,0-3-2c-3.19-1.89-3.25-3.18-.27-5.46a57.14,57.14,0,0,0,5.23-4.16c3.51-3.41,3.18-6.51-.91-9.25-2.79-1.87-5.74-3.51-8.45-5.47-3.09-2.24-3-3.95-.24-6.57s6.12-5.23,8.61-8.3c5.28-6.54,5.45-11.75,1.27-19-.27-.47-.55-.93-.83-1.4l.36-.66a7.76,7.76,0,0,1,2.43,1.19,14.33,14.33,0,0,1,.27,19.26A73.26,73.26,0,0,1,193,28.1c-4.59,4-4.54,5.87.65,9.23,2.21,1.44,4.55,2.68,6.74,4.14,4.2,2.81,4.5,6,.82,9.4a42.31,42.31,0,0,1-4.66,3.34c-3.5,2.45-3.44,4.44.19,6.54a4.63,4.63,0,0,1,1.23.72c1,1.15,2.43,2.25,2.77,3.59.47,1.86-1.62,2.18-2.84,3A45,45,0,0,0,194,71.34a31.47,31.47,0,0,0,3.65,3.39c3.63,2.45,3.93,3.52,1.65,7.27A12.05,12.05,0,0,0,198.05,91.18Z"/><path class="cls-3" d="M141.51,32.6V24.9a100.77,100.77,0,0,1,10.86.1c2.33.26,2.51,2.56,2.41,4.56s-1,3-3,3C148.49,32.62,145.15,32.6,141.51,32.6Z"/><path class="cls-4" d="M256.42,86.79c9.56-1.23,17.85-5.61,26-10.45A36.13,36.13,0,0,1,290.52,73c3.12-.94,6.44-1.24,9.57-2.16,1.19-.34,2.91-1.63,2.93-2.51C303,67,302,65.45,301,64.4a5.19,5.19,0,0,0-3.09-1.08,26.81,26.81,0,0,0-6.45-.1c-3.61.56-7.17,1.48-10.73,2.34-3.07.74-5.37.06-7.17-2.77a20.68,20.68,0,0,1-3.23-8.37,23.54,23.54,0,0,1-4.82.16c-9.38-.38-16.13.37-21,0s-11.63-.38-12,3.38,8.26,5.25,18.39,4.5a68,68,0,0,1,17.26.75s3.38,3,1.5,3-12.38.75-17.26,1.13-14.64-1.5-15,4.13,19.89,3,22.14,3,14.7-.75,14.48,1.12-8.48,3-11.1,3.76-13.14,0-13.14,3.75a3.71,3.71,0,0,0,3.61,3.71l1.43,0Z"/><path class="cls-4" d="M242.2,51.58c5.67.35,25.75,1,27.94,1.11,0-.39,0-.78,0-1.18.08-2.56.18-5.12.27-7.68-.77-.07-1.18-.13-1.18-.13s-19.14-1.51-25.15-.38S236.19,51.2,242.2,51.58Z"/><path class="cls-5" d="M253.87,86.8a4.73,4.73,0,0,0,.53,0h.9Z"/><path class="cls-5" d="M307.31,37.3c-3-4.5-8.26-15.38-8.63-21.39s-6.38-9.76-8.26,2.25,3,12.39,3,16.52-3,8.25-10.88,9a63.45,63.45,0,0,1-11.58.14l-.27,7.67c0,.41,0,.8,0,1.19h.21s2.46,1.23-.07,1.72a20.68,20.68,0,0,0,3.23,8.37c1.81,2.83,4.1,3.51,7.17,2.77,3.56-.86,7.12-1.79,10.74-2.34a26.73,26.73,0,0,1,6.44.1,5.2,5.2,0,0,1,3.1,1.08c1,1,2.08,2.57,2.06,3.87,0,.89-1.74,2.18-2.92,2.52-3.14.92-6.45,1.22-9.58,2.15a36.36,36.36,0,0,0-8.11,3.4c-8.14,4.84-16.42,9.22-26,10.45a86.53,86.53,0,0,0,18.43-2.57c9.38-2.62,27,.75,36.78-10.13S310.31,41.81,307.31,37.3Z"/><text class="cls-6" transform="translate(46.37 68.43)">Curso de Letras: Libras/<tspan x="-20.1" y="8.14">Língua portuguesa da UFRN</tspan></text></svg>